<svg width="117px" height="24px" viewBox="0 0 117 24" version="1.1" xmlns="http://www.w3.org/2000/svg" xmlns:xlink="http://www.w3.org/1999/xlink">
    <g id="Page-1" stroke="none" stroke-width="1" fill="none" fill-rule="evenodd">
        <g id="fast-epp-logo" fill-rule="nonzero">
            <polygon id="Path" fill="#000000" points="0 18.91008 0 0 11.20896 0 11.20896 2.25216 2.61888 2.25216 2.61888 8.1984 10.71168 8.1984 10.71168 10.45056 2.61888 10.45056 2.61888 18.91008"/>
            <path d="M22.26048,10.7904 C22.26048,8.51136 22.12992,7.17696 19.48416,7.17696 C18.22656,7.17696 17.04768,7.9104 17.02272,9.27168 L14.40384,9.27168 C14.5344,6.38976 16.78656,5.36832 19.38048,5.36832 C21.9744,5.36832 24.7488,6.18048 24.7488,9.84768 L24.7488,16.13376 C24.7488,16.70976 24.77568,17.80992 24.85248,18.91008 L23.17632,18.91008 C22.94016,18.91008 22.49472,19.04064 22.46976,18.72768 C22.41792,18.1248 22.36608,17.5488 22.3392,16.94592 L22.28736,16.94592 C21.4752,18.59712 20.00832,19.30368 18.2016,19.30368 C15.92256,19.30368 13.61856,18.1248 13.61856,15.55776 C13.61856,11.8656 16.89216,10.7904 20.00832,10.7904 L22.26048,10.7904 L22.26048,10.7904 Z M19.77216,12.5184 C18.25344,12.59712 16.23552,13.14624 16.23552,15.05856 C16.23552,16.68288 17.36256,17.49504 18.82752,17.49504 C21.76128,17.49504 22.3104,14.95488 22.25856,12.5184 L19.77024,12.5184 L19.77216,12.5184 Z" id="Shape" fill="#000000"/>
            <path d="M33.33696,5.36832 C35.82528,5.36832 38.62656,6.41664 38.44416,9.40224 L35.82528,9.40224 C35.93088,7.72608 34.6464,7.17696 33.2064,7.17696 C31.872,7.17696 30.7968,7.8048 30.7968,9.27168 C30.7968,10.73856 33.04896,10.84224 33.99168,11.13024 C36.21696,11.86368 38.784,12.1248 38.784,15.08544 C38.784,18.3072 35.64096,19.30176 32.94336,19.30176 C30.24576,19.30176 27.888,18.04416 27.91488,15.00672 L30.53376,15.00672 C30.5856,16.63104 31.68576,17.49504 33.20448,17.49504 C34.7232,17.49504 36.16512,16.91904 36.16512,15.216 C36.16512,12.28224 28.176,14.48256 28.176,9.34848 C28.176,6.59904 30.95232,5.36832 33.33504,5.36832 L33.33696,5.36832 Z" id="Path" fill="#000000"/>
            <path d="M43.81056,5.76192 L43.81056,2.95872 L46.29888,2.17344 L46.29888,5.76192 L49.33632,5.6832 L49.33632,7.54176 L46.29888,7.51488 L46.29888,16.00128 C46.29888,16.944 47.03232,17.38944 47.9232,17.38944 C48.3168,17.38944 48.83904,17.3376 49.23264,17.232 L49.23264,19.14432 C48.65664,19.1712 48.1056,19.30176 47.5296,19.30176 C46.9536,19.30176 46.45632,19.27488 45.85344,19.1712 C45.45984,19.09248 44.80512,18.8832 44.38656,18.3072 C43.94112,17.67936 43.81056,17.6256 43.81056,15.87072 L43.81056,7.5168 L41.5584,7.54368 L41.5584,5.68512 L43.81056,5.76384 L43.81056,5.76192 Z" id="Path" fill="#000000"/>
            <polygon id="Path" fill="#EE3124" points="60.96384 6.23424 60.96384 11.65632 66.38592 11.65632 66.38592 13.48992 60.96384 13.48992 60.96384 18.912 59.13024 18.912 59.13024 13.48992 53.70816 13.48992 53.70816 11.65632 59.13024 11.65632 59.13024 6.23424"/>
            <polygon id="Path" fill="#000000" points="71.75232 18.91008 71.75232 0 83.616 0 83.616 2.25216 74.3712 2.25216 74.3712 8.14464 83.17056 8.14464 83.17056 10.3968 74.3712 10.3968 74.3712 16.656 83.82528 16.656 83.82528 18.90816 71.75232 18.90816"/>
            <path d="M87.77856,8.11968 C87.75168,7.3344 87.69984,6.54912 87.648,5.76192 L90.18816,5.76192 L90.26688,7.85664 L90.31872,7.85664 C91.07904,5.9712 92.72832,5.36832 94.79808,5.36832 C98.49024,5.36832 100.32384,8.77248 100.32384,12.336 C100.32384,15.7152 98.75328,19.30368 94.0128,19.30368 C92.93952,19.30368 91.21152,18.77952 90.3456,17.41824 L90.26688,17.41824 L90.26688,23.94048 L87.77856,23.94048 L87.77856,8.11968 L87.77856,8.11968 Z M93.98592,7.17696 C91.15776,7.17696 90.26688,9.95328 90.26688,12.336 C90.26688,14.71872 90.97344,17.49504 93.74976,17.49504 C96.7872,17.49504 97.70496,14.79744 97.70496,12.336 C97.70496,9.87456 96.97152,7.17696 93.98592,7.17696 Z" id="Shape" fill="#000000"/>
            <path d="M103.77792,8.11968 C103.75104,7.3344 103.6992,6.54912 103.64736,5.76192 L106.18752,5.76192 L106.26624,7.85664 L106.31808,7.85664 C107.0784,5.9712 108.72768,5.36832 110.79744,5.36832 C114.4896,5.36832 116.3232,8.77248 116.3232,12.336 C116.3232,15.7152 114.75264,19.30368 110.01216,19.30368 C108.93888,19.30368 107.21088,18.77952 106.34496,17.41824 L106.26624,17.41824 L106.26624,23.94048 L103.77792,23.94048 L103.77792,8.11968 Z M109.98528,7.17696 C107.15712,7.17696 106.26624,9.95328 106.26624,12.336 C106.26624,14.71872 106.9728,17.49504 109.74912,17.49504 C112.78656,17.49504 113.70432,14.79744 113.70432,12.336 C113.70432,9.87456 112.97088,7.17696 109.98528,7.17696 Z" id="Shape" fill="#000000"/>
        </g>
    </g>
<script xmlns=""/></svg>